<svg width="44" height="35" viewBox="0 0 44 35" fill="none" xmlns="http://www.w3.org/2000/svg">
<path d="M31.8098 1.64706C33.6264 1.64706 35.3421 2.1626 36.9568 3.19369C38.5716 4.22478 39.8836 5.70696 40.8928 7.64024C41.8617 9.57353 42.3462 11.8505 42.3462 14.4712C42.3462 17.0919 41.7406 19.6481 40.5295 22.1399C40.1259 23.0421 39.3992 24.2021 38.3496 25.6198C37.2596 27.0375 36.2504 28.2619 35.3219 29.293L31.507 33.3529L28.7821 28.5841C30.6794 27.3383 32.3548 25.7916 33.808 23.9443C35.2613 22.1399 35.988 20.4858 35.988 18.9822C35.988 18.2089 35.8265 17.5859 35.5035 17.1133C34.0906 18.1874 32.5162 18.7244 30.7803 18.7244C29.5289 18.7244 28.338 18.3163 27.2076 17.5C26.0369 16.7267 25.1084 15.6956 24.4222 14.4068C23.6955 13.1608 23.3322 11.872 23.3322 10.5402C23.3322 9.0365 23.7561 7.59728 24.6039 6.2225C25.4112 4.84772 26.481 3.73071 27.8132 2.87147C29.105 2.0552 30.4372 1.64706 31.8098 1.64706ZM10.0708 1.64706C11.8875 1.64706 13.6031 2.1626 15.218 3.19369C16.8328 4.22477 18.1447 5.70695 19.154 7.64024C20.1228 9.57353 20.6073 11.8505 20.6073 14.4712C20.6073 16.3186 20.3852 17.9726 19.9412 19.4333C19.4971 20.9369 18.7301 22.5051 17.6401 24.1376C16.5905 25.6842 15.6014 26.9731 14.673 28.0042C13.7444 29.0782 12.1297 30.8612 9.82863 33.3529L7.10371 28.5841C9.00107 27.3383 10.6764 25.7916 12.1297 23.9443C13.583 22.1399 14.3096 20.4858 14.3096 18.9822C14.3096 18.2089 14.1482 17.5859 13.8252 17.1133C12.4123 18.1874 10.8379 18.7244 9.10199 18.7244C7.85054 18.7244 6.65964 18.3163 5.5293 17.5C4.35859 16.7267 3.4301 15.6956 2.74382 14.4068C2.01717 13.1608 1.65385 11.872 1.65385 10.5402C1.65385 9.0365 2.05754 7.59728 2.86493 6.2225C3.67231 4.84772 4.7421 3.73071 6.07429 2.87147C7.36611 2.0552 8.6983 1.64706 10.0708 1.64706Z" fill="black"/>
</svg>
