<?xml version="1.0" standalone="no"?>
<!DOCTYPE svg PUBLIC "-//W3C//DTD SVG 20010904//EN"
 "http://www.w3.org/TR/2001/REC-SVG-20010904/DTD/svg10.dtd">
<svg version="1.0" xmlns="http://www.w3.org/2000/svg"
 width="700.000000pt" height="700.000000pt" viewBox="0 0 700.000000 700.000000"
 preserveAspectRatio="xMidYMid meet">
<metadata>
Created by potrace 1.14, written by Peter Selinger 2001-2017
</metadata>
<g transform="translate(0.000000,700.000000) scale(0.100000,-0.100000)"
fill="#000000" stroke="none">
<path d="M3225 6853 c-677 -54 -1103 -182 -1547 -464 -844 -535 -1373 -1390
-1515 -2449 -26 -193 -26 -678 0 -870 40 -293 107 -570 198 -819 61 -166 214
-478 306 -624 425 -673 1079 -1175 1767 -1357 61 -16 111 -28 113 -27 1 2 -38
39 -89 83 -77 67 -362 364 -545 567 -86 95 -191 241 -239 330 -90 170 -119
295 -129 562 -11 281 -47 470 -116 607 -17 34 -64 96 -109 144 -130 138 -181
272 -181 474 0 202 51 337 180 473 84 89 117 140 156 236 42 103 55 169 70
351 9 111 23 211 39 272 174 683 903 1357 1623 1503 246 49 527 34 805 -44
390 -110 790 -355 1081 -661 318 -334 481 -679 502 -1060 14 -262 78 -436 212
-582 112 -122 180 -264 201 -417 26 -182 -52 -398 -199 -557 -150 -161 -193
-321 -219 -819 -12 -222 -30 -308 -94 -440 -75 -154 -210 -320 -449 -551 -231
-223 -410 -377 -514 -440 -66 -40 -62 -40 117 12 684 197 1345 731 1764 1429
257 426 415 882 483 1391 23 180 23 608 0 788 -134 1004 -662 1887 -1459 2439
-451 312 -917 465 -1572 517 -117 9 -542 11 -641 3z"/>
<path d="M3340 5435 c-209 -44 -495 -153 -680 -259 -294 -168 -348 -273 -208
-403 148 -136 487 -233 924 -264 571 -40 1068 78 1321 314 75 70 81 99 34 164
-96 133 -503 336 -861 430 -117 31 -154 36 -275 39 -120 3 -157 0 -255 -21z"/>
<path d="M2043 4450 c-12 -5 -29 -21 -39 -35 -37 -56 -44 -128 -44 -457 l0
-318 1610 0 1610 0 0 318 c0 335 -8 407 -47 461 -52 69 -132 52 -400 -85 -219
-111 -325 -150 -515 -189 -246 -49 -355 -59 -643 -59 -289 0 -405 11 -655 61
-191 38 -299 77 -495 178 -239 124 -319 150 -382 125z"/>
<path d="M2440 3139 c-504 -20 -777 -64 -852 -140 -76 -75 -1 -133 212 -164
189 -28 463 -35 1375 -35 l922 0 -47 -232 c-55 -269 -75 -432 -66 -537 10
-104 25 -133 90 -177 91 -60 163 -48 205 34 41 81 51 149 61 417 6 143 15 283
20 310 21 104 71 145 196 165 38 6 226 15 419 20 366 10 456 19 533 59 103 52
94 132 -20 181 -120 51 -382 83 -838 100 -309 12 -1896 11 -2210 -1z"/>
<path d="M1960 2013 c0 -391 8 -488 51 -616 54 -161 152 -262 300 -308 470
-146 2164 -140 2558 10 74 28 117 64 166 140 213 333 221 994 12 1121 -42 26
-121 27 -163 1 -80 -49 -118 -144 -128 -326 -9 -150 -28 -240 -72 -332 -91
-192 -274 -294 -477 -265 -169 24 -347 145 -464 314 -28 40 -85 142 -127 226
-42 84 -89 172 -105 195 -41 60 -115 125 -167 148 -112 50 -140 52 -781 56
l-603 4 0 -368z"/>
<path d="M3250 569 c-235 -27 -396 -87 -435 -164 -8 -16 -19 -64 -24 -105 -5
-41 -10 -82 -12 -90 -3 -11 21 -18 116 -31 370 -51 821 -53 1210 -4 158 20
355 58 330 63 -32 7 -41 18 -64 82 -13 36 -34 69 -53 85 -87 73 -275 132 -509
159 -143 17 -431 19 -559 5z"/>
</g>
</svg>
