<svg aria-hidden="true" style="position: absolute; width: 0; height: 0; overflow: hidden;" version="1.1" xmlns="http://www.w3.org/2000/svg" xmlns:xlink="http://www.w3.org/1999/xlink">
<defs>
<symbol id="icon-person" viewBox="0 0 32 32">
<path d="M16 16c2.946 0 5.333-2.388 5.333-5.333s-2.388-5.333-5.333-5.333v0c-2.946 0-5.333 2.388-5.333 5.333s2.388 5.333 5.333 5.333v0zM16 18.667c-3.561 0-10.667 1.787-10.667 5.333v1.333c0 0.732 0.599 1.333 1.333 1.333h18.667c0.732 0 1.333-0.601 1.333-1.333v-1.333c0-3.547-7.108-5.333-10.667-5.333z"></path>
</symbol>
<symbol id="icon-phone" viewBox="0 0 32 32">
<path d="M24.882 19.774l-3.268-0.373c-0.090-0.011-0.194-0.018-0.3-0.018-0.707 0-1.347 0.287-1.81 0.75l-2.368 2.368c-3.669-1.894-6.585-4.81-8.427-8.372l-0.051-0.108 2.382-2.377c0.463-0.463 0.75-1.103 0.75-1.81 0-0.106-0.006-0.21-0.019-0.312l0.001 0.012-0.373-3.243c-0.155-1.287-1.24-2.276-2.557-2.276-0.001 0-0.002 0-0.003 0h-2.226c-1.454 0-2.663 1.209-2.574 2.661 0.683 10.987 9.47 19.762 20.444 20.444 1.452 0.089 2.663-1.12 2.663-2.574v-2.226c0-0.004 0-0.008 0-0.012 0-1.308-0.985-2.386-2.253-2.532l-0.012-0.001z"></path>
</symbol>
<symbol id="icon-email" viewBox="0 0 32 32">
<path d="M26.667 5.333h-21.333c-1.467 0-2.652 1.2-2.652 2.667l-0.014 16c0 1.467 1.2 2.667 2.667 2.667h21.333c1.467 0 2.667-1.2 2.667-2.667v-16c0-1.467-1.2-2.667-2.667-2.667zM26.133 11.001l-9.426 5.892c-0.201 0.126-0.446 0.2-0.708 0.2s-0.506-0.075-0.713-0.204l0.006 0.003-9.426-5.892c-0.336-0.201-0.557-0.562-0.557-0.975 0-0.625 0.507-1.132 1.132-1.132 0.233 0 0.449 0.070 0.629 0.19l-0.004-0.003 8.933 5.586 8.933-5.588c0.176-0.118 0.392-0.188 0.624-0.188 0.625 0 1.132 0.507 1.132 1.132 0 0.413-0.221 0.775-0.552 0.972l-0.005 0.003z"></path>
</symbol>
<symbol id="icon-vector" viewBox="0 0 42 32">
<path stroke-linejoin="miter" stroke-linecap="butt" stroke-miterlimit="4" stroke-width="0.64" d="M6.262 15.206l-0.221-0.211-0.221 0.208-3.085 2.925 0.243 0.234 11.408 10.88 0.221-0.211 24.256-23.139-0.243-0.23-3.043-2.902-0.221 0.211-20.97 19.987-8.125-7.75z"></path>
</symbol>
<symbol id="icon-right-side" viewBox="0 0 32 32">
<path stroke-linejoin="round" stroke-linecap="round" stroke-miterlimit="4" stroke-width="6.4" d="M9.6 3.2l12.8 12.8-12.8 12.8"></path>
</symbol>
<symbol id="icon-logo" viewBox="0 0 32 32">
<path fill="#d51745" style="fill: var(--color1, #d51745)" d="M9.088 30.016c-11.264-5.632-11.264-22.528 0.064-28.032 3.584-1.728 9.92-1.792 13.568-0.128 5.248 2.368 8.896 8.128 8.896 14.144s-3.648 11.776-8.896 14.144c-3.648 1.664-10.112 1.6-13.632-0.128z"></path>
<path fill="#fef6f8" style="fill: var(--color2, #fef6f8)" d="M9.472 28.736c-1.92-1.984-2.432-3.008-2.432-4.992 0-1.408-0.384-2.816-0.96-3.264-1.216-1.024-1.216-3.456 0-4.48 0.512-0.448 0.96-1.536 0.96-2.496 0-3.968 4.736-8.384 8.96-8.384 4.672 0 9.6 4.288 9.6 8.32 0 0.96 0.448 2.112 0.96 2.56s0.96 1.472 0.96 2.24c0 0.768-0.448 1.792-0.96 2.24-0.576 0.448-0.96 1.856-0.96 3.328 0 2.112-0.448 2.944-2.688 5.12-2.176 2.048-2.816 2.432-2.944 1.6-0.32-1.472-7.168-1.6-7.168-0.128s-0.768 1.152-3.328-1.664zM22.464 26.88c1.536-0.896 1.792-5.76 0.256-5.76-0.576 0-0.96 0.576-0.96 1.536 0 3.456-3.584 3.84-5.12 0.576-0.896-1.984-1.152-2.112-4.288-2.112h-3.392v2.56c0 1.728 0.384 2.688 1.152 3.136 1.408 0.896 10.752 0.896 12.352 0.064zM19.84 21.44c0-2.24 0-2.24 2.944-2.24 2.048 0 2.816-0.256 2.688-0.768-0.256-0.64-2.624-0.832-9.152-0.832s-8.896 0.192-9.152 0.832c-0.192 0.576 1.216 0.768 5.632 0.768h5.952l-0.384 1.856c-0.192 1.024-0.192 1.984 0 2.24 0.96 0.896 1.472 0.256 1.472-1.856zM23.68 13.44c0-2.176-0.256-2.24-2.56-0.96-0.896 0.512-3.008 0.896-4.8 0.896-1.728 0-3.904-0.384-4.8-0.896-2.304-1.28-2.56-1.216-2.56 0.96v1.92h14.72v-1.92zM20.16 10.752c0.896-0.384 1.6-0.96 1.6-1.216 0-0.832-3.648-2.496-5.44-2.496-1.856 0-5.44 1.664-5.44 2.496 0 1.664 6.336 2.56 9.28 1.216z"></path>
</symbol>
<symbol id="icon-burger" viewBox="0 0 46 32">
<path stroke-linejoin="miter" stroke-linecap="butt" stroke-miterlimit="4" stroke-width="2.2857" d="M0 2.286h45.714M0 16h45.714M0 29.714h45.714"></path>
</symbol>
<symbol id="icon-burgernew" viewBox="0 0 46 32">
<path stroke-linejoin="miter" stroke-linecap="butt" stroke-miterlimit="4" stroke-width="2.2857" d="M0 2.286h45.714M0 16h45.714M0 29.714h45.714"></path>
</symbol>
<symbol id="icon-burgernew-new" viewBox="0 0 32 32">
<path d="M0 5.76v1.28h32v-1.28zM0 15.36v1.28h32v-1.28zM0 24.96v1.28h32v-1.28z"></path>
</symbol>
<symbol id="icon-close" viewBox="0 0 32 32">
<path d="M26.667 7.303l-1.97-1.97-7.808 7.808-7.808-7.808-1.97 1.97 7.808 7.808-7.808 7.808 1.97 1.97 7.808-7.808 7.808 7.808 1.97-1.97-7.808-7.808 7.808-7.808z"></path>
</symbol>
<symbol id="icon-menu" viewBox="0 0 48 32">
<path d="M0 5.334v-5.334h48v5.334h-48zM0 18.666h48v-5.332h-48v5.332zM0 32h48v-5.334h-48v5.334z"></path>
</symbol>
<symbol id="icon-milk" viewBox="0 0 21 32">
<path d="M3.52 31.232c-0.512-1.6-2.88-15.040-2.88-16.384 0-1.408 0.192-1.408 9.92-1.408h9.92l-0.064 1.792c0 0.96-0.64 5.056-1.408 9.088l-1.472 7.36-6.848 0.192c-5.184 0.128-6.912-0.064-7.168-0.64zM17.152 25.792c0.384-2.368 0.64-4.416 0.448-4.544-0.128-0.128-0.96 0.256-1.92 0.896-1.024 0.704-2.944 1.088-5.12 1.088s-4.096-0.384-5.12-1.088c-0.96-0.64-1.792-1.024-1.92-0.896-0.192 0.128 0.064 2.176 0.448 4.544l0.704 4.288h11.776l0.704-4.288zM16.64 19.456c0.96-1.024 1.984-2.496 2.24-3.264l0.384-1.472h-17.408l0.384 1.472c0.576 1.728 2.752 4.224 4.48 4.992 0.704 0.32 2.816 0.448 4.672 0.384 2.752-0.192 3.776-0.576 5.248-2.112zM8.704 10.752c-0.192-0.448-0.384-1.28-0.576-1.792-0.192-0.64-1.088-0.96-3.072-0.96h-2.816v-7.68h16.64v7.68h-2.816c-2.56 0-2.944 0.192-3.264 1.6-0.256 1.152-0.896 1.664-2.112 1.792-1.024 0.128-1.856-0.128-1.984-0.64zM11.52 8.64c0-1.984 2.816-3.392 4.608-2.304 1.408 0.896 2.24-0.256 1.152-1.536-0.448-0.512-0.64-1.408-0.384-1.92 0.32-0.832-0.64-0.96-6.336-0.96s-6.656 0.128-6.336 0.96c0.256 0.512 0.064 1.408-0.384 1.92-1.088 1.28-0.256 2.432 1.152 1.536 1.792-1.088 4.608 0.32 4.608 2.304 0 1.024 0.384 1.6 0.96 1.6s0.96-0.576 0.96-1.6z"></path>
</symbol>
<symbol id="icon-apple" viewBox="0 0 32 32">
<path d="M4.416 31.872c0-0.128-0.96-4.864-2.112-10.56-1.792-8.896-1.984-10.688-1.28-12.288 0.448-1.024 1.344-2.176 2.048-2.56 1.088-0.576 1.216-1.152 0.96-3.264-0.256-1.664-0.128-2.56 0.384-2.56 0.384 0 0.704 0.512 0.704 1.152 0 0.576 0.256 1.536 0.64 2.048 0.512 0.768 0.704 0.768 1.792-0.192 1.472-1.344 2.624-1.408 4.288-0.192 2.432 1.664 3.776 1.536 4.8-0.512 1.088-2.176 3.072-3.264 2.24-1.28-1.216 2.944-1.152 3.328 0.512 3.008 1.984-0.384 4.288 1.728 4.288 3.84 0 0.832 0.256 1.728 0.576 2.048 0.384 0.384 0.256 2.432-0.32 5.12-0.448 2.496-0.832 4.864-0.896 5.312 0 1.6 1.28 0.704 2.176-1.472 0.512-1.216 1.28-2.24 1.6-2.24 0.896 0 0.896 1.728 0.064 2.24-1.216 0.704-0.704 2.368 0.576 1.92 1.856-0.576 4.096 1.664 4.032 4.096-0.128 4.352-2.88 6.336-7.872 5.632-1.344-0.192-2.688-0.064-2.88 0.256-0.256 0.512-16.128 0.896-16.32 0.448zM19.392 26.944c-0.32-2.56-0.128-3.456 1.152-5.12 1.92-2.56 1.28-3.008-1.92-1.408-3.648 1.92-8.64 1.792-12.48-0.256-2.624-1.408-3.008-1.472-2.688-0.512 0.128 0.64 0.64 2.88 1.024 4.992s0.832 4.224 0.96 4.672c0.192 0.512 2.24 0.768 7.296 0.768h7.040l-0.384-3.136zM28.864 28.736c1.472-1.472 1.6-4.928 0.192-5.504-0.512-0.192-1.664 0-2.432 0.448-1.152 0.576-1.728 0.576-2.752-0.064-0.704-0.448-1.792-0.576-2.432-0.32-0.896 0.32-1.024 0.896-0.768 2.816 0.256 1.28 0.896 2.688 1.408 3.072 1.6 1.216 5.44 0.896 6.784-0.448zM17.728 19.264c2.624-1.216 4.16-2.944 4.992-5.632l0.384-1.472h-10.24c-9.792 0-10.304 0.064-10.304 1.28 0 1.792 3.648 5.632 6.016 6.336 3.2 0.96 6.272 0.768 9.152-0.512zM12.8 8.96c0-4.032-3.776-6.144-5.248-2.944-0.448 1.088-1.28 1.664-2.688 1.792-1.28 0.128-2.048 0.576-2.176 1.344-0.192 0.96 0.384 1.088 4.928 1.088 4.736 0 5.184-0.128 5.184-1.28zM22.080 9.6c0.192-0.384 0.192-1.216 0-1.92-0.448-1.472-3.84-1.856-4.352-0.448-0.256 0.64-0.448 0.64-1.152 0-1.472-1.408-2.496-0.96-2.496 1.088 0 1.92 0 1.92 3.776 1.92 2.112 0 4.032-0.32 4.224-0.64z"></path>
</symbol>
<symbol id="icon-heart" viewBox="0 0 28 32">
<path d="M11.52 27.264v-4.736l-3.52-2.624c-5.824-4.416-8.448-9.472-7.232-13.888 1.536-5.76 7.488-7.424 11.904-3.328l1.408 1.344 1.472-1.344c4.352-4.096 10.304-2.432 11.84 3.328 1.216 4.416-1.408 9.472-7.232 13.888l-3.52 2.624v9.472h-5.12v-4.736zM15.36 26.88c0-3.392-0.128-3.84-1.28-3.84s-1.28 0.448-1.28 3.84 0.128 3.84 1.28 3.84 1.28-0.448 1.28-3.84zM19.008 19.264c1.664-1.344 3.776-3.2 4.608-4.16 1.408-1.472 1.472-1.728 0.576-2.752-0.512-0.64-1.152-1.664-1.344-2.304-0.64-1.728-1.92-1.024-2.432 1.28-0.512 2.624-1.088 3.392-2.432 3.392-1.536 0-2.432-1.152-2.752-3.52-0.128-1.152-0.576-1.92-1.152-1.92s-1.024 0.768-1.152 1.92c-0.32 2.368-1.216 3.52-2.752 3.52-1.344 0-1.92-0.768-2.432-3.392-0.512-2.304-1.792-3.008-2.432-1.28-0.192 0.64-0.832 1.664-1.344 2.304-0.896 1.024-0.832 1.28 0.576 2.752 3.2 3.52 7.744 6.656 9.536 6.656 1.152 0 2.944-0.896 4.928-2.496zM11.392 11.008c0.384-4.096 4.992-4.096 5.376 0.064 0.256 2.752 2.048 2.816 2.304 0 0.128-1.088 0.576-2.368 1.088-2.752 1.28-1.088 3.456-0.192 3.904 1.664 0.192 0.832 0.768 1.536 1.28 1.536 0.64 0 0.896-0.896 0.896-3.2 0-2.624-0.32-3.584-1.6-4.8-2.176-2.24-5.952-2.176-8 0-0.832 0.896-1.984 1.6-2.56 1.6s-1.728-0.704-2.56-1.6c-2.048-2.176-5.824-2.24-8 0-1.28 1.216-1.6 2.176-1.6 4.8 0 2.304 0.256 3.2 0.896 3.2 0.512 0 1.088-0.704 1.28-1.536 0.832-3.328 4.864-2.56 4.864 0.896 0 3.264 2.112 3.392 2.432 0.128z"></path>
</symbol>
<symbol id="icon-home" viewBox="0 0 32 32">
<path d="M31.618 15.643c0.237-0.258 0.382-0.603 0.382-0.983 0-0.438-0.194-0.832-0.501-1.098l-0.002-0.002-13.637-11.931c-0.293-0.248-0.676-0.399-1.093-0.399-0.431 0-0.824 0.16-1.124 0.425l0.002-0.002-13.681 12.544c-0.292 0.266-0.474 0.647-0.474 1.071 0 0.391 0.155 0.746 0.408 1.007l-0-0 0.345 0.357c0.566 0.591 1.487 0.665 2.053 0.158l1.022-0.916v13.406c0 0.825 0.665 1.489 1.489 1.489h5.329c0.822 0 1.489-0.665 1.489-1.489v-9.378h6.806v9.378c-0.012 0.822 0.576 1.489 1.398 1.489h5.652c0.822 0 1.487-0.665 1.487-1.489v-13.218l0.633 0.556c0.347 0.305 1.078 0.059 1.63-0.549l0.389-0.426z"></path>
</symbol>
<symbol id="icon-github" viewBox="0 0 32 32">
<path d="M16 0c-8.789 0-16 7.211-16 16 0 7.499 5.262 14.312 12.25 16v-5.293c-0.276 0.070-0.593 0.109-0.919 0.109-0.398 0-0.781-0.059-1.143-0.169l0.028 0.007c-0.946-0.278-1.714-0.909-2.285-1.869-0.363-0.613-1.008-1.28-1.68-1.23l-0.165-1.867c1.454-0.125 2.71 0.886 3.456 2.139 0.333 0.558 0.715 0.885 1.205 1.029 0.472 0.141 0.981 0.074 1.573-0.136 0.149-1.186 0.693-1.629 1.104-2.256-4.168-0.621-5.829-2.832-6.488-4.576-0.874-2.318-0.405-5.213 1.139-7.043 0.030-0.035 0.085-0.128 0.064-0.192-0.709-2.141 0.154-3.91 0.186-4.098 0.818 0.24 0.95-0.243 3.552 1.336l0.448 0.27c0.189 0.112 0.128 0.048 0.317 0.032 1.003-0.282 2.157-0.452 3.349-0.469l0.010-0c1.136 0.014 2.272 0.176 3.403 0.483l0.146 0.016c-0.013-0.003 0.040-0.010 0.128-0.062 3.248-1.968 3.131-1.325 4.003-1.608 0.032 0.189 0.882 1.987 0.182 4.099-0.096 0.291 2.816 2.957 1.202 7.235-0.659 1.744-2.32 3.957-6.486 4.578 0.534 0.816 1.176 1.248 1.173 2.928v6.606c6.986-1.688 12.25-8.501 12.25-16 0-8.789-7.211-16-16-16z"></path>
</symbol>
<symbol id="icon-telegram" viewBox="0 0 32 32">
<path d="M12.612 19.671l-0.49 6.444c0.703 0 1.007-0.282 1.372-0.62l3.292-2.938 6.822 4.665c1.251 0.65 2.134 0.307 2.473-1.075l4.477-19.587c0.399-1.727-0.669-2.401-1.887-1.978l-26.323 9.407c-1.796 0.652-1.77 1.585-0.305 2.012l6.729 1.952 15.632-9.129c0.736-0.455 1.405-0.204 0.855 0.252l-12.647 10.596z"></path>
</symbol>
<symbol id="icon-facebook" viewBox="0 0 32 32">
<path d="M22.143 15.971h-4.033v14.865h-6.112v-14.865h-2.906v-5.222h2.906v-3.382c0-2.417 1.142-6.204 6.167-6.204l4.527 0.019v5.072h-3.284c-0.538 0-1.297 0.272-1.297 1.425v3.073h4.567l-0.534 5.219z"></path>
</symbol>
<symbol id="icon-arrow-right" viewBox="0 0 32 32">
<path d="M19.414 27.414l10-10c0.781-0.781 0.781-2.047 0-2.828l-10-10c-0.781-0.781-2.047-0.781-2.828 0s-0.781 2.047 0 2.828l6.586 6.586h-19.172c-1.105 0-2 0.895-2 2s0.895 2 2 2h19.172l-6.586 6.586c-0.39 0.39-0.586 0.902-0.586 1.414s0.195 1.024 0.586 1.414c0.781 0.781 2.047 0.781 2.828 0z"></path>
</symbol>
<symbol id="icon-review-home" viewBox="0 0 35 32">
<path  d="M32.64 15.401c0.599-0.65 0.541-1.646-0.129-2.225l-14.772-12.75c-0.671-0.578-1.745-0.566-2.402 0.027l-14.822 13.403c-0.656 0.594-0.689 1.589-0.071 2.222l0.372 0.382c0.617 0.633 1.613 0.708 2.224 0.168l1.108-0.979v14.326c0 0.879 0.722 1.591 1.612 1.591h5.778c0.89 0 1.612-0.712 1.612-1.591v-10.023h7.37v10.023c-0.013 0.878 0.624 1.59 1.515 1.59h6.123c0.89 0 1.613-0.711 1.613-1.59v-14.124c0 0 0.306 0.264 0.683 0.592s1.168 0.065 1.767-0.586l0.42-0.455z"></path>
</symbol>
<symbol id="icon-review-dot" viewBox="0 0 35 32">
<path  d="M33.053 16c0 8.837-7.163 16-16 16s-16-7.163-16-16c0-8.837 7.163-16 16-16s16 7.163 16 16z"></path>
</symbol>
<symbol id="icon-button" viewBox="0 0 18 32">
<path d="M4 30c-0.001 0-0.002 0-0.003 0-1.105 0-2-0.895-2-2 0-0.488 0.175-0.936 0.466-1.283l-0.003 0.003 8.96-10.72-8.64-10.74c-0.279-0.341-0.447-0.781-0.447-1.261 0-0.629 0.29-1.19 0.744-1.556l0.004-0.003c0.35-0.31 0.814-0.498 1.321-0.498 0.651 0 1.23 0.311 1.595 0.793l0.004 0.005 9.66 12c0.283 0.343 0.455 0.786 0.455 1.27s-0.172 0.927-0.458 1.273l0.003-0.003-10 12c-0.369 0.443-0.922 0.724-1.54 0.724-0.042 0-0.084-0.001-0.126-0.004l0.006 0z"></path>
</symbol>

</defs>
</svg>
