<svg aria-hidden="true" style="position: absolute; width: 0; height: 0; overflow: hidden;" version="1.1" xmlns="http://www.w3.org/2000/svg" xmlns:xlink="http://www.w3.org/1999/xlink">
<defs>
<symbol id="icon-right-side" viewBox="0 0 32 32">
<path stroke-linejoin="round" stroke-linecap="round" stroke-miterlimit="4" stroke-width="6.4" d="M9.6 3.2l12.8 12.8-12.8 12.8"></path>
</symbol>
<symbol id="icon-milk" viewBox="0 0 21 32">
<path d="M3.52 31.232c-0.512-1.6-2.88-15.040-2.88-16.384 0-1.408 0.192-1.408 9.92-1.408h9.92l-0.064 1.792c0 0.96-0.64 5.056-1.408 9.088l-1.472 7.36-6.848 0.192c-5.184 0.128-6.912-0.064-7.168-0.64zM17.152 25.792c0.384-2.368 0.64-4.416 0.448-4.544-0.128-0.128-0.96 0.256-1.92 0.896-1.024 0.704-2.944 1.088-5.12 1.088s-4.096-0.384-5.12-1.088c-0.96-0.64-1.792-1.024-1.92-0.896-0.192 0.128 0.064 2.176 0.448 4.544l0.704 4.288h11.776l0.704-4.288zM16.64 19.456c0.96-1.024 1.984-2.496 2.24-3.264l0.384-1.472h-17.408l0.384 1.472c0.576 1.728 2.752 4.224 4.48 4.992 0.704 0.32 2.816 0.448 4.672 0.384 2.752-0.192 3.776-0.576 5.248-2.112zM8.704 10.752c-0.192-0.448-0.384-1.28-0.576-1.792-0.192-0.64-1.088-0.96-3.072-0.96h-2.816v-7.68h16.64v7.68h-2.816c-2.56 0-2.944 0.192-3.264 1.6-0.256 1.152-0.896 1.664-2.112 1.792-1.024 0.128-1.856-0.128-1.984-0.64zM11.52 8.64c0-1.984 2.816-3.392 4.608-2.304 1.408 0.896 2.24-0.256 1.152-1.536-0.448-0.512-0.64-1.408-0.384-1.92 0.32-0.832-0.64-0.96-6.336-0.96s-6.656 0.128-6.336 0.96c0.256 0.512 0.064 1.408-0.384 1.92-1.088 1.28-0.256 2.432 1.152 1.536 1.792-1.088 4.608 0.32 4.608 2.304 0 1.024 0.384 1.6 0.96 1.6s0.96-0.576 0.96-1.6z"></path>
</symbol>
<symbol id="icon-apple" viewBox="0 0 32 32">
<path d="M4.416 31.872c0-0.128-0.96-4.864-2.112-10.56-1.792-8.896-1.984-10.688-1.28-12.288 0.448-1.024 1.344-2.176 2.048-2.56 1.088-0.576 1.216-1.152 0.96-3.264-0.256-1.664-0.128-2.56 0.384-2.56 0.384 0 0.704 0.512 0.704 1.152 0 0.576 0.256 1.536 0.64 2.048 0.512 0.768 0.704 0.768 1.792-0.192 1.472-1.344 2.624-1.408 4.288-0.192 2.432 1.664 3.776 1.536 4.8-0.512 1.088-2.176 3.072-3.264 2.24-1.28-1.216 2.944-1.152 3.328 0.512 3.008 1.984-0.384 4.288 1.728 4.288 3.84 0 0.832 0.256 1.728 0.576 2.048 0.384 0.384 0.256 2.432-0.32 5.12-0.448 2.496-0.832 4.864-0.896 5.312 0 1.6 1.28 0.704 2.176-1.472 0.512-1.216 1.28-2.24 1.6-2.24 0.896 0 0.896 1.728 0.064 2.24-1.216 0.704-0.704 2.368 0.576 1.92 1.856-0.576 4.096 1.664 4.032 4.096-0.128 4.352-2.88 6.336-7.872 5.632-1.344-0.192-2.688-0.064-2.88 0.256-0.256 0.512-16.128 0.896-16.32 0.448zM19.392 26.944c-0.32-2.56-0.128-3.456 1.152-5.12 1.92-2.56 1.28-3.008-1.92-1.408-3.648 1.92-8.64 1.792-12.48-0.256-2.624-1.408-3.008-1.472-2.688-0.512 0.128 0.64 0.64 2.88 1.024 4.992s0.832 4.224 0.96 4.672c0.192 0.512 2.24 0.768 7.296 0.768h7.040l-0.384-3.136zM28.864 28.736c1.472-1.472 1.6-4.928 0.192-5.504-0.512-0.192-1.664 0-2.432 0.448-1.152 0.576-1.728 0.576-2.752-0.064-0.704-0.448-1.792-0.576-2.432-0.32-0.896 0.32-1.024 0.896-0.768 2.816 0.256 1.28 0.896 2.688 1.408 3.072 1.6 1.216 5.44 0.896 6.784-0.448zM17.728 19.264c2.624-1.216 4.16-2.944 4.992-5.632l0.384-1.472h-10.24c-9.792 0-10.304 0.064-10.304 1.28 0 1.792 3.648 5.632 6.016 6.336 3.2 0.96 6.272 0.768 9.152-0.512zM12.8 8.96c0-4.032-3.776-6.144-5.248-2.944-0.448 1.088-1.28 1.664-2.688 1.792-1.28 0.128-2.048 0.576-2.176 1.344-0.192 0.96 0.384 1.088 4.928 1.088 4.736 0 5.184-0.128 5.184-1.28zM22.080 9.6c0.192-0.384 0.192-1.216 0-1.92-0.448-1.472-3.84-1.856-4.352-0.448-0.256 0.64-0.448 0.64-1.152 0-1.472-1.408-2.496-0.96-2.496 1.088 0 1.92 0 1.92 3.776 1.92 2.112 0 4.032-0.32 4.224-0.64z"></path>
</symbol>
<symbol id="icon-heart" viewBox="0 0 28 32">
<path d="M11.52 27.264v-4.736l-3.52-2.624c-5.824-4.416-8.448-9.472-7.232-13.888 1.536-5.76 7.488-7.424 11.904-3.328l1.408 1.344 1.472-1.344c4.352-4.096 10.304-2.432 11.84 3.328 1.216 4.416-1.408 9.472-7.232 13.888l-3.52 2.624v9.472h-5.12v-4.736zM15.36 26.88c0-3.392-0.128-3.84-1.28-3.84s-1.28 0.448-1.28 3.84 0.128 3.84 1.28 3.84 1.28-0.448 1.28-3.84zM19.008 19.264c1.664-1.344 3.776-3.2 4.608-4.16 1.408-1.472 1.472-1.728 0.576-2.752-0.512-0.64-1.152-1.664-1.344-2.304-0.64-1.728-1.92-1.024-2.432 1.28-0.512 2.624-1.088 3.392-2.432 3.392-1.536 0-2.432-1.152-2.752-3.52-0.128-1.152-0.576-1.92-1.152-1.92s-1.024 0.768-1.152 1.92c-0.32 2.368-1.216 3.52-2.752 3.52-1.344 0-1.92-0.768-2.432-3.392-0.512-2.304-1.792-3.008-2.432-1.28-0.192 0.64-0.832 1.664-1.344 2.304-0.896 1.024-0.832 1.28 0.576 2.752 3.2 3.52 7.744 6.656 9.536 6.656 1.152 0 2.944-0.896 4.928-2.496zM11.392 11.008c0.384-4.096 4.992-4.096 5.376 0.064 0.256 2.752 2.048 2.816 2.304 0 0.128-1.088 0.576-2.368 1.088-2.752 1.28-1.088 3.456-0.192 3.904 1.664 0.192 0.832 0.768 1.536 1.28 1.536 0.64 0 0.896-0.896 0.896-3.2 0-2.624-0.32-3.584-1.6-4.8-2.176-2.24-5.952-2.176-8 0-0.832 0.896-1.984 1.6-2.56 1.6s-1.728-0.704-2.56-1.6c-2.048-2.176-5.824-2.24-8 0-1.28 1.216-1.6 2.176-1.6 4.8 0 2.304 0.256 3.2 0.896 3.2 0.512 0 1.088-0.704 1.28-1.536 0.832-3.328 4.864-2.56 4.864 0.896 0 3.264 2.112 3.392 2.432 0.128z"></path>
</symbol>
<symbol id="icon-home" viewBox="0 0 32 32">
<path d="M31.618 15.643c0.237-0.258 0.382-0.603 0.382-0.983 0-0.438-0.194-0.832-0.501-1.098l-0.002-0.002-13.637-11.931c-0.293-0.248-0.676-0.399-1.093-0.399-0.431 0-0.824 0.16-1.124 0.425l0.002-0.002-13.681 12.544c-0.292 0.266-0.474 0.647-0.474 1.071 0 0.391 0.155 0.746 0.408 1.007l-0-0 0.345 0.357c0.566 0.591 1.487 0.665 2.053 0.158l1.022-0.916v13.406c0 0.825 0.665 1.489 1.489 1.489h5.329c0.822 0 1.489-0.665 1.489-1.489v-9.378h6.806v9.378c-0.012 0.822 0.576 1.489 1.398 1.489h5.652c0.822 0 1.487-0.665 1.487-1.489v-13.218l0.633 0.556c0.347 0.305 1.078 0.059 1.63-0.549l0.389-0.426z"></path>
</symbol>
<symbol id="icon-github" viewBox="0 0 32 32">
<path d="M16 0c-8.789 0-16 7.211-16 16 0 7.499 5.262 14.312 12.25 16v-5.293c-0.276 0.070-0.593 0.109-0.919 0.109-0.398 0-0.781-0.059-1.143-0.169l0.028 0.007c-0.946-0.278-1.714-0.909-2.285-1.869-0.363-0.613-1.008-1.28-1.68-1.23l-0.165-1.867c1.454-0.125 2.71 0.886 3.456 2.139 0.333 0.558 0.715 0.885 1.205 1.029 0.472 0.141 0.981 0.074 1.573-0.136 0.149-1.186 0.693-1.629 1.104-2.256-4.168-0.621-5.829-2.832-6.488-4.576-0.874-2.318-0.405-5.213 1.139-7.043 0.030-0.035 0.085-0.128 0.064-0.192-0.709-2.141 0.154-3.91 0.186-4.098 0.818 0.24 0.95-0.243 3.552 1.336l0.448 0.27c0.189 0.112 0.128 0.048 0.317 0.032 1.003-0.282 2.157-0.452 3.349-0.469l0.010-0c1.136 0.014 2.272 0.176 3.403 0.483l0.146 0.016c-0.013-0.003 0.040-0.010 0.128-0.062 3.248-1.968 3.131-1.325 4.003-1.608 0.032 0.189 0.882 1.987 0.182 4.099-0.096 0.291 2.816 2.957 1.202 7.235-0.659 1.744-2.32 3.957-6.486 4.578 0.534 0.816 1.176 1.248 1.173 2.928v6.606c6.986-1.688 12.25-8.501 12.25-16 0-8.789-7.211-16-16-16z"></path>
</symbol>
<symbol id="icon-telegram" viewBox="0 0 32 32">
<path d="M12.612 19.671l-0.49 6.444c0.703 0 1.007-0.282 1.372-0.62l3.292-2.938 6.822 4.665c1.251 0.65 2.134 0.307 2.473-1.075l4.477-19.587c0.399-1.727-0.669-2.401-1.887-1.978l-26.323 9.407c-1.796 0.652-1.77 1.585-0.305 2.012l6.729 1.952 15.632-9.129c0.736-0.455 1.405-0.204 0.855 0.252l-12.647 10.596z"></path>
</symbol>
<symbol id="icon-facebook" viewBox="0 0 32 32">
<path d="M22.143 15.971h-4.033v14.865h-6.112v-14.865h-2.906v-5.222h2.906v-3.382c0-2.417 1.142-6.204 6.167-6.204l4.527 0.019v5.072h-3.284c-0.538 0-1.297 0.272-1.297 1.425v3.073h4.567l-0.534 5.219z"></path>
</symbol>
<symbol id="icon-arrow-right" viewBox="0 0 32 32">
<path d="M19.414 27.414l10-10c0.781-0.781 0.781-2.047 0-2.828l-10-10c-0.781-0.781-2.047-0.781-2.828 0s-0.781 2.047 0 2.828l6.586 6.586h-19.172c-1.105 0-2 0.895-2 2s0.895 2 2 2h19.172l-6.586 6.586c-0.39 0.39-0.586 0.902-0.586 1.414s0.195 1.024 0.586 1.414c0.781 0.781 2.047 0.781 2.828 0z"></path>
</symbol>

</defs>
</svg>
